<?xml version="1.0" standalone="no"?><svg xmlns="http://www.w3.org/2000/svg" viewBox="0 0 1440 320"><path fill="#FBFEFE" fill-opacity="1" d="M0,96L40,80C80,64,160,32,240,48C320,64,400,128,480,170.7C560,213,640,235,720,234.7C800,235,880,213,960,224C1040,235,1120,277,1200,261.3C1280,245,1360,171,1400,133.3L1440,96L1440,320L1400,320C1360,320,1280,320,1200,320C1120,320,1040,320,960,320C880,320,800,320,720,320C640,320,560,320,480,320C400,320,320,320,240,320C160,320,80,320,40,320L0,320Z"></path></svg>