<?xml version="1.0" standalone="no"?><svg xmlns="http://www.w3.org/2000/svg" viewBox="0 0 1440 320"><path fill="#EDF9FB" fill-opacity="1" d="M0,192L40,170.7C80,149,160,107,240,122.7C320,139,400,213,480,202.7C560,192,640,96,720,96C800,96,880,192,960,213.3C1040,235,1120,181,1200,160C1280,139,1360,149,1400,154.7L1440,160L1440,320L1400,320C1360,320,1280,320,1200,320C1120,320,1040,320,960,320C880,320,800,320,720,320C640,320,560,320,480,320C400,320,320,320,240,320C160,320,80,320,40,320L0,320Z"></path></svg>